#!OML:ASF F:\VICON\USERDATA\INSTALL\rory3\rory3.ASF
:FULLY-SPECIFIED
:DEGREES
477
root 0.83101 15.9216 32.2769 0.84881 4.1862 2.8033
lowerback 12.653 -0.52752 -7.49871
upperback -4.89804 -1.85203 1.70683
thorax -12.2829 -0.190005 6.56772
lowerneck -10.1692 -6.32087 -4.5527
upperneck 20.365 -8.8764 4.27943
head 8.39685 -4.14758 1.2514
rclavicle 1.43125e-014 1.15295e-014
rhumerus -42.2189 -2.30894 -82.6052
rradius 23.6772
rwrist 6.92094
rhand -8.87281 20.8512
rfingers 7.12502
rthumb 17.0689 -8.41893
lclavicle 1.43125e-014 1.15295e-014
lhumerus -37.8482 12.6576 80.1769
lradius 20.924
lwrist -6.07508
lhand -4.83593 17.7779
lfingers 7.12502
lthumb 20.951 46.6664
rfemur -19.4975 12.5234 20.9938
rtibia 32.9934
rfoot -12.7036 -10.8339
rtoes 21.1967
lfemur -10.3385 1.43674 -19.9513
ltibia 64.7593
lfoot 17.0428 5.293
ltoes 22.3233
478
root 0.818627 15.9286 32.393 0.817827 4.0939 2.84906
lowerback 12.6704 -0.397862 -7.54711
upperback -4.84779 -1.69321 1.63877
thorax -12.2641 -0.117021 6.48325
lowerneck -10.0695 -6.39885 -4.53915
upperneck 20.2169 -8.99921 4.35713
head 8.33797 -4.2006 1.26584
rclavicle -1.44864e-014 8.74653e-015
rhumerus -41.8606 -2.1417 -82.7186
rradius 24.017
rwrist 6.99897
rhand -8.85768 20.616
rfingers 7.12502
rthumb 17.0834 -8.6529
lclavicle -1.44864e-014 8.74653e-015
lhumerus -37.7684 12.7174 80.1083
lradius 20.841
lwrist -6.01107
lhand -4.61875 17.9905
lfingers 7.12502
lthumb 21.1597 46.8558
rfemur -18.8698 12.5326 21.1338
rtibia 32.7776
rfoot -13.0591 -10.6121
rtoes 21.5949
lfemur -11.7708 2.07013 -20.0069
ltibia 66.3706
lfoot 15.0263 3.65071
ltoes 18.2545
479
root 0.799277 15.9289 32.5021 0.691312 3.97967 2.71609
lowerback 12.8532 -0.23882 -7.47648
upperback -4.76801 -1.4808 1.6145
thorax -12.3202 -0.0226703 6.37341
lowerneck -10.0494 -6.54055 -4.64689
upperneck 20.1235 -9.20722 4.52088
head 8.32683 -4.2924 1.31524
rclavicle 2.61153e-014 -3.26007e-014
rhumerus -41.5154 -2.5531 -82.4873
rradius 24.4411
rwrist 7.71544
rhand -8.68283 20.5332
rfingers 7.12502
rthumb 17.2517 -8.72104
lclavicle 2.61153e-014 -3.26007e-014
lhumerus -37.6634 12.5166 80.1688
lradius 20.8871
lwrist -5.71361
lhand -4.44284 18.0859
lfingers 7.12502
lthumb 21.3287 46.9321
rfemur -18.2159 12.7383 21.5285
rtibia 32.5906
rfoot -13.3239 -10.8048
rtoes 21.3683
lfemur -13.1927 2.7 -19.752
ltibia 67.7597
lfoot 13.0604 2.48399
ltoes 16.3266
480
root 0.786862 15.9346 32.6277 0.632947 4.06562 3.03374
lowerback 12.7181 -0.172172 -7.78446
upperback -4.65046 -1.44494 1.48982
thorax -12.1095 -0.00256897 6.39332
lowerneck -10.7145 -6.62287 -4.53478
upperneck 20.6395 -9.30528 4.32613
head 8.61226 -4.32836 1.19336
rclavicle 7.50412e-015 5.1684e-015
rhumerus -41.0599 -2.14132 -82.6897
rradius 24.6849
rwrist 7.17951
rhand -8.72108 20.3329
rfingers 7.12502
rthumb 17.2149 -8.92455
lclavicle 7.50412e-015 5.1684e-015
lhumerus -37.6255 12.4376 80.2327
lradius 21.0398
lwrist -5.18247
lhand -4.58194 17.9587
lfingers 7.12502
lthumb 21.195 46.82
rfemur -17.479 12.3879 21.3934
rtibia 32.4112
rfoot -13.5333 -10.6811
rtoes 20.7688
lfemur -14.432 2.92767 -20.1969
ltibia 68.755
lfoot 11.1575 1.92063
ltoes 15.1878
481
root 0.778352 15.9457 32.7429 0.658496 4.10561 3.13893
lowerback 12.7084 -0.0943354 -7.82812
upperback -4.61316 -1.35609 1.39687
thorax -12.0776 0.0353141 6.29307
lowerneck -10.3906 -6.65403 -4.67887
upperneck 20.3175 -9.37184 4.59008
head 8.46808 -4.35542 1.31071
rclavicle 2.5345e-015 -9.54166e-015
rhumerus -40.6375 -1.40443 -83.0855
rradius 24.8044
rwrist 6.29739
rhand -8.91984 20.2889
rfingers 7.12502
rthumb 17.0236 -8.9852
lclavicle 2.5345e-015 -9.54166e-015
lhumerus -37.5894 12.1527 80.3618
lradius 21.3723
lwrist -4.4108
lhand -4.4175 18.2545
lfingers 7.12502
lthumb 21.353 47.098
rfemur -16.8212 12.1097 21.4418
rtibia 32.1176
rfoot -13.6899 -10.4443
rtoes 20.3766
lfemur -15.8926 3.20681 -20.4743
ltibia 69.6314
lfoot 9.60851 1.24608
ltoes 10.9531
482
root 0.763216 15.9492 32.84 0.692002 4.06397 2.92777
lowerback 12.9316 0.0260398 -7.61282
upperback -4.62319 -1.17854 1.3628
thorax -12.2554 0.110285 6.09985
lowerneck -10.2583 -6.77244 -4.6937
upperneck 20.081 -9.55759 4.74276
head 8.38251 -4.43524 1.34916
rclavicle 4.32357e-015 1.19271e-014
rhumerus -40.2935 -1.01583 -83.397
rradius 24.9395
rwrist 5.41165
rhand -9.46612 20.8236
rfingers 7.12502
rthumb 16.4977 -8.49503
lclavicle 4.32357e-015 1.19271e-014
lhumerus -37.3901 11.893 80.4169
lradius 21.3862
lwrist -3.86016
lhand -4.15902 18.4018
lfingers 7.12502
lthumb 21.6012 47.217
rfemur -16.2294 12.3486 21.8593
rtibia 31.7121
rfoot -13.9268 -10.5456
rtoes 20.4913
lfemur -17.502 3.6014 -20.3158
ltibia 70.4587
lfoot 8.37705 0.766568
ltoes 9.35821
483
root 0.74004 15.9501 32.9463 0.562269 3.97709 2.5281
lowerback 13.0612 0.132115 -7.37283
upperback -4.55835 -0.990304 1.45056
thorax -12.2888 0.184642 6.02072
lowerneck -10.1724 -6.86224 -4.75053
upperneck 19.98 -9.67703 4.78187
head 8.34422 -4.49516 1.36151
rclavicle -1.27222e-014 -5.96354e-015
rhumerus -39.9525 -0.730395 -83.5488
rradius 25.1933
rwrist 4.90734
rhand -9.82826 21.0763
rfingers 7.12502
rthumb 16.149 -8.2709
lclavicle -1.27222e-014 -5.96354e-015
lhumerus -37.3153 11.916 80.3584
lradius 21.3807
lwrist -3.74498
lhand -3.95499 18.3438
lfingers 7.12502
lthumb 21.7972 47.1363
rfemur -15.3618 12.7491 22.5859
rtibia 31.2064
rfoot -14.1848 -10.9309
rtoes 20.3018
lfemur -18.7694 4.05299 -19.8331
ltibia 71.1005
lfoot 7.2628 0.279171
ltoes 12.2663
484
root 0.70881 15.9451 33.0596 0.295146 3.7856 1.89505
lowerback 13.2119 0.287227 -7.09955
upperback -4.44897 -0.716354 1.6524
thorax -12.2957 0.300216 6.02954
lowerneck -10.1498 -6.91771 -4.75376
upperneck 19.9699 -9.75415 4.78619
head 8.34125 -4.53177 1.35555
rclavicle 1.36664e-015 -1.27222e-014
rhumerus -39.5681 -0.898391 -83.3968
rradius 25.5082
rwrist 5.44538
rhand -9.76316 20.6213
rfingers 7.12502
rthumb 16.2117 -8.72081
lclavicle 1.36664e-015 -1.27222e-014
lhumerus -37.3587 11.8212 80.3823
lradius 21.6719
lwrist -3.56466
lhand -3.73786 18.4289
lfingers 7.12502
lthumb 22.0057 47.1971
rfemur -14.4132 13.3841 23.6569
rtibia 30.7835
rfoot -14.4482 -11.486
rtoes 19.8057
lfemur -19.8635 4.64018 -18.9956
ltibia 71.5821
lfoot 6.09549 -0.31276
ltoes 15.0112
485
root 0.694586 15.942 33.1711 0.229871 3.67712 1.63377
lowerback 13.254 0.4173 -6.86082
upperback -4.39425 -0.499868 1.64438
thorax -12.291 0.381449 5.83322
lowerneck -10.1427 -6.97997 -4.78553
upperneck 19.9357 -9.86302 4.92675
head 8.34349 -4.57236 1.39501
rclavicle -4.89507e-015 1.15295e-014
rhumerus -39.1994 -1.21268 -83.2505
rradius 25.8151
rwrist 6.00913
rhand -9.48712 20.3178
rfingers 7.12502
rthumb 16.4775 -9.00246
lclavicle -4.89507e-015 1.15295e-014
lhumerus -37.3139 11.4962 80.4718
lradius 21.966
lwrist -3.23393
lhand -3.68466 18.731
lfingers 7.12502
lthumb 22.0567 47.4932
rfemur -13.7475 13.4051 24.166
rtibia 30.5048
rfoot -14.5572 -11.5285
rtoes 19.5798
lfemur -21.0535 4.99049 -18.8154
ltibia 71.7423
lfoot 4.78777 -0.620572
ltoes 15.2215
